<?xml version="1.0" encoding="utf-8"?>
<!-- Generator: Adobe Illustrator 19.0.0, SVG Export Plug-In . SVG Version: 6.00 Build 0)  -->
<svg version="1.1" id="layer" xmlns="http://www.w3.org/2000/svg" xmlns:xlink="http://www.w3.org/1999/xlink" x="0px" y="0px"
	 viewBox="-153 -46 652 652" style="enable-background:new -153 -46 652 652;" xml:space="preserve">
<path id="XMLID_1_" d="M455.4,177L455.4,177c-0.8-0.9-1.6-1.8-2-2.9c-0.6-1-0.9-2.1-1-3.4c-0.2-1.7-0.1-3.3,0.4-4.8
	c0.6-1.6,1.3-2.9,2.6-4.2c1-1,2.2-1.8,3.5-2.4c1.3-0.6,2.7-0.8,4.2-0.8v1.3c-1.2,0-2.4,0.2-3.6,0.8c-1,0.4-2,1-2.9,1.9
	c-0.9,1-1.7,2-2.1,3.1c-0.4,1.1-0.8,2.4-0.8,3.6s0.3,2.4,0.8,3.6c0.4,1.1,1.1,2.1,2,3c0.9,0.9,1.9,1.6,3,2c1.1,0.4,2.2,0.7,3.5,0.7
	h0.1v1.5c-1.2,0-2.4-0.2-3.5-0.6C458,179,456.7,178.2,455.4,177 M463.1,158.6L463.1,158.6c1.5,0,2.8,0.3,4.2,0.8
	c1.3,0.6,2.5,1.4,3.5,2.4c1,1,1.8,2.1,2.4,3.5c0.4,1.3,0.8,2.7,0.8,4.2s-0.3,2.8-0.8,4.2c-0.6,1.2-1.3,2.5-2.4,3.5
	c-0.8,0.8-1.8,1.5-2.9,2c-1,0.6-2.2,0.9-3.5,1c-0.4,0.1-0.9,0.1-1.2,0.1v-1.5c1.2,0,2.4-0.2,3.6-0.7c1.1-0.4,2.1-1.1,3-2
	c0.9-0.9,1.6-1.9,2-3c0.4-1.1,0.7-2.4,0.7-3.6s-0.2-2.4-0.7-3.6c-0.5-1.1-1.1-2.1-2-2.9c-0.8-0.9-1.9-1.7-3-2.1
	c-1.1-0.4-2.4-0.8-3.6-0.8V158.6z M461,173.5L461,173.5l-5.5-5.5l3.3-3.3c0.8-0.8,1.6-1.5,2.2-1.8v1.9c-0.4,0.2-0.9,0.7-1.5,1.2
	l-1.3,1.3l2.8,2.8V173.5z M465.1,167.8l6,2l-1.9,1.8l-5.4-1.9l-1.6,1.6l3.6,3.7l-1.6,1.7l-3.2-3.1v-3.3l1.5-1.3
	c0.8-0.8,1.2-1.5,1.4-2c0.1-0.6-0.1-1.1-0.6-1.6c-0.6-0.6-1-0.7-1.7-0.6c-0.1,0-0.3,0.1-0.6,0.1v-1.9c0.3-0.1,0.7-0.3,1.1-0.3
	c0.9-0.2,1.8,0.1,2.6,0.8c0.7,0.7,1,1.3,1,2.1C465.9,166.3,465.7,167,465.1,167.8 M147.9,393.4l-20.8,20.7l79.6,24.9l11.7-11.8
	l-24.9-79.4l-20.8,20.7l14.4,39.1L147.9,393.4z M228.6,349.4L228.6,349.4c-4.3-6.4-2.6-13.8,2.8-19.1c1.9-2,4.3-3.4,6.7-4V307
	c-6.7,1.9-13.5,5.9-19.7,12.1c-8.7,8.8-13.3,18.9-13.3,29.1v0.1c0,9.6,3.9,19.1,12.3,27.6c6.4,6.4,13.5,10.1,20.7,11.5V340
	L228.6,349.4z M238.2,326.3c3.9-1.2,8.3-0.8,11.9,1.8L238.2,340v47.5c12.8,2.4,26.2-2.9,37.3-13.9c7.4-7.5,12.7-17.2,13.2-27.2v-2.7
	c-0.2-5-1.7-9.8-4.6-14.5l-17.8,17.8c1.5,5.5-0.1,9.7-4.1,13.6c-7.6,7.6-15.6,7.5-23.2,0l38.9-38.9l-1.9-1.9
	c-11.7-11.7-25-16.1-37.9-12.6V326.3z M290.7,280.8l7.6-7.4l-15.3-15.3l-7.5,7.6l-15.8-15.6l-18.4,18.4l15.6,15.5l-6,6.1l15.3,15.2
	l6-6l36.9,36.9l18.6-18.4L290.7,280.8z M357.7,220.5L357.7,220.5c-4.3-6.4-2.6-13.8,2.8-19.1c1.9-2,4.3-3.4,6.7-4v-19.2
	c-6.7,1.9-13.5,5.9-19.7,12.1c-8.8,8.7-13.4,18.9-13.4,29v0.3c0,9.6,4,19,12.4,27.4c6.4,6.4,13.5,10.1,20.7,11.5v-47.5L357.7,220.5z
	 M367.2,197.4c3.9-1.2,8.3-0.8,11.9,1.8l-11.9,11.9v47.5c12.8,2.4,26.2-2.8,37.3-13.9c7.4-7.5,12.7-17.2,13.2-27.2v-2.7
	c-0.2-5-1.7-9.8-4.6-14.5L395.4,218c1.5,5.5-0.1,9.7-4.1,13.6c-7.6,7.6-15.6,7.5-23.2,0l38.9-38.9l-1.9-1.9
	c-11.7-11.7-25-16.1-37.9-12.6V197.4z M402,139.2l-18.6,18.6l52.3,52.2l18.5-18.6l-21-21c-9-8.9-13.3-18.3-2.9-28.6
	c2.8-2.8,5.5-4.9,9.6-6.1L421.9,118l-3.5,3.5c-7.3,7.2-10.5,16.2-7.6,26.2l-0.2,0.1L402,139.2z M346.2,299.4l18.4-18.6L327.7,244
	l6-6l-15.2-15.3l-6.1,6l-15.6-15.6l-18.6,18.4l15.8,15.8l-7.6,7.5l15.3,15.3l7.5-7.5L346.2,299.4z M18.3,425.9
	c16.1,16.1,42.1,16.1,58.2,0l142-142h-111l-61.1,61.1L-14.8,284h-108.9L18.3,425.9z M107.8,276.6h113L76.4,132
	c-16.1-16.1-42.1-16.1-58.1,0c0,0-135.1,135.1-144.4,144.5h110.9L46.3,215L107.8,276.6z"/>
</svg>
